<?xml version="1.0" encoding="utf-8"?>
<!-- Generator: Adobe Illustrator 16.0.0, SVG Export Plug-In . SVG Version: 6.00 Build 0)  -->
<!DOCTYPE svg PUBLIC "-//W3C//DTD SVG 1.1//EN" "http://www.w3.org/Graphics/SVG/1.1/DTD/svg11.dtd">
<svg version="1.1" id="c73_y100" xmlns="http://www.w3.org/2000/svg" xmlns:xlink="http://www.w3.org/1999/xlink" x="0px" y="0px"
	 width="359.236px" height="56px" viewBox="0 3.181 359.236 56" enable-background="new 0 3.181 359.236 56" xml:space="preserve">
<g>
	<g>
		<path fill="#4EC425" stroke="#000000" stroke-width="0.02" d="M10.773,38.568h4.919l0.222-6.796L15.582,3.476l12.49,0.498
			l-0.498,21.94v1.769c0,0.388,0.056,2.156,0.056,5.308c0,9.339-5.306,14.203-14.867,14.203c-9.175,0-12.601-4.477-12.601-13.927
			v-1.824c0-0.222,0.056-0.996,0.056-2.376h10.555V38.568z"/>
		<path fill="#4EC425" stroke="#000000" stroke-width="0.02" d="M41.738,18.176h5.471l-0.663,20.062h8.843
			c0.222-4.479,0.276-8.179,0.276-11.109c0-1.547-0.111-4.808-0.331-9.726l10.777,0.276l-0.276,12.214l0.276,14.479l-8.401-0.222
			l-0.333-1.987c-3.039,2.928-6.632,4.42-10.501,4.42c-6.797,0-10.611-3.536-10.611-10.335c0-3.37,0.276-6.079,0.276-8.014V27.46
			l-0.552-9.561L41.738,18.176z"/>
		<path fill="#4EC425" stroke="#000000" stroke-width="0.02" d="M84.709,44.76L74.65,45.091c0.442-8.843,0.497-14.37,0.497-16.581
			v-1.989c0-2.377-0.055-5.029-0.331-8.014l8.014,0.498l0.607,2.929c4.145-3.316,8.345-4.975,12.269-4.975
			c5.693,0,8.124,3.039,8.124,9.065c0,0.497,0,0.94-0.056,1.493l-0.331,5.749c-0.111,3.812-0.111,6.521-0.111,8.181
			c0,1.434,0.056,3.036,0.166,4.808c-3.425-0.222-6.963-0.389-10.611-0.389l0.442-10.942L92.5,25.861l-7.626,0.443l0.222,8.125
			C84.931,37.298,84.82,40.726,84.709,44.76z"/>
		<path fill="#4EC425" stroke="#000000" stroke-width="0.02" d="M123.083,44.207c-7.848,0-12.656-4.919-12.656-13.762
			c0-9.008,4.808-14.092,13.099-14.092c4.145,0,7.35,1.214,9.505,3.591l1.382-2.709l6.963,0.167v24.208
			c0,5.084-0.11,8.677-1.382,10.941c-2.211,3.869-7.239,6.301-14.48,6.301c-10.39,0-15.198-3.591-15.198-11.384
			c0-0.498,0-0.994,0.056-1.549l10.389,0.665l-0.11,4.754l8.731,0.055l0.056-8.623C127.34,43.82,125.349,44.207,123.083,44.207z
			 M122.365,24.588V35.64l10.501-0.221l-0.277-10.445L122.365,24.588z"/>
		<path fill="#4EC425" stroke="#000000" stroke-width="0.02" d="M150.191,23.98c0-5.141,0-11.717-0.11-19.73l11.219,0.442
			l-0.718,26.695l0.387,14.147l-10.999-0.607C150.136,37.851,150.191,30.833,150.191,23.98z"/>
		<path fill="#4EC425" stroke="#000000" stroke-width="0.02" d="M198.412,36.579c-0.996,6.356-6.135,10.28-14.203,10.28
			c-10.17,0-16.304-5.858-16.304-14.812c0-9.449,6.079-15.694,15.53-15.694c9.449,0,15.529,6.189,15.529,16.415v1.047
			c-3.812,0-7.459-0.056-10.998-0.056c-2.597,0-5.913,0.223-9.948,0.554c0,1.934,0.166,3.703,0.498,5.474l8.787,0.109l0.332-2.986
			L198.412,36.579z M188.519,28.677l-0.496-5.638l-8.18,0.166v5.472H188.519z"/>
		<path fill="#4EC425" stroke="#000000" stroke-width="0.02" d="M249.007,41.958c-2.209,3.646-5.636,5.139-10.941,5.139
			c-11.936,0-19.122-7.735-19.122-21.773c0-14.646,7.131-22.107,21.111-22.107c11.938,0,18.294,5.638,18.294,15.641
			c0,0.055,0.056,0.333,0.056,0.773h-13.432l0.055-6.3l-12.376-0.442v16.138l0.385,7.958h13.597c0.22-1.325,0.387-2.707,0.387-4.088
			c0-0.332-0.055-0.719-0.055-1.105l-7.463-0.276v-7.129l19.951,0.443l-0.883,19.787l-8.236,0.496L249.007,41.958z"/>
		<path fill="#4EC425" stroke="#000000" stroke-width="0.02" d="M275.333,17.144l3.703,10.942c0.828,2.433,1.438,5.142,1.823,7.903
			l3.261-12.379l1.327-7.129l8.344,0.94c-2.598,7.626-5.748,18.35-9.78,32.054c-1.825,6.133-3.813,9.449-10.943,9.449
			c-6.19,0-9.341-2.761-9.341-8.289c0-0.719,0.111-1.658,0.223-2.764l8.179,0.939l-0.443,3.704l3.096,0.221l1.161-5.916
			l-8.457-20.503l-3.535-8.897L275.333,17.144z"/>
		<path fill="#4EC425" stroke="#000000" stroke-width="0.02" d="M299.387,32.949c0-5.084-0.056-10.004-0.333-14.645h8.954
			l0.223,3.37c2.318-3.259,6.132-5.194,10.443-5.194c4.033,0,7.351,2.045,8.566,5.25c1.933-3.37,5.527-5.084,10.776-5.084
			c6.577,0,10.5,3.48,10.556,9.948l0.222,19.066l-10.943-0.331c0.112-1.934,0.112-4.032,0.112-6.135
			c0-0.719-0.058-2.817-0.168-6.467l-0.498-7.128l-7.571-0.166l-0.054,19.619c-3.869-0.33-6.799-0.497-8.843-0.497
			c-0.939,0-1.824,0.056-2.763,0.056l-0.055-18.404l-7.961,0.276c-0.222,2.597-0.276,5.25-0.276,7.792v2.266
			c0.112,1.603,0.112,3.204,0.112,4.809c0,1.271,0,2.486-0.058,3.701c-4.031,0.11-7.68,0.222-10.94,0.387
			C299.332,41.351,299.387,37.205,299.387,32.949z"/>
	</g>
	<path fill="#4EC425" d="M353.175,9.256h0.596c0.475,0,0.918,0.216,0.918,0.842c0,0.397-0.244,0.964-0.996,0.964h-0.519
		L353.175,9.256L353.175,9.256z M351.721,14.291h1.454v-2.341h0.673l1.239,2.434l1.531-0.214l-1.5-2.525
		c0.583-0.306,1.057-0.826,1.057-1.714c0-0.995-0.796-1.561-2.098-1.561h-2.357L351.721,14.291L351.721,14.291z M353.818,17.077
		c2.983,0,5.418-2.496,5.418-5.557c0-3.032-2.434-5.526-5.418-5.526c-3.001,0-5.435,2.495-5.435,5.526
		C348.383,14.582,350.817,17.077,353.818,17.077z M353.818,16.173c-2.45,0-4.455-2.128-4.455-4.653c0-2.496,2.005-4.623,4.455-4.623
		c2.448,0,4.438,2.127,4.438,4.623C358.259,14.047,356.266,16.173,353.818,16.173z"/>
</g>
</svg>
