<?xml version="1.0" encoding="utf-8"?>
<!-- Generator: Adobe Illustrator 23.0.1, SVG Export Plug-In . SVG Version: 6.00 Build 0)  -->
<svg version="1.1" id="Layer_1" xmlns="http://www.w3.org/2000/svg" xmlns:xlink="http://www.w3.org/1999/xlink" x="0px" y="0px"
	 viewBox="0 0 187.1 87.9" style="enable-background:new 0 0 187.1 87.9;" xml:space="preserve">
<style type="text/css">
	.st0{fill-rule:evenodd;clip-rule:evenodd;fill:#000222;}
</style>
<g>
	<path class="st0" d="M6.3,0C2.8,0,0,2.8,0,6.3v75.4c0,3.5,2.8,6.3,6.3,6.3l148.4,0c17.9,0,32.4-14.5,32.4-32.4v-23
		c0-17.9-14.5-32.4-32.4-32.4L6.3,0L6.3,0z M1.9,81.6V6.3c0-2.4,2-4.4,4.4-4.4l148.4,0c16.9,0,30.6,13.7,30.6,30.6v23
		c0,16.9-13.7,30.6-30.6,30.6L6.3,86C3.8,86,1.9,84.1,1.9,81.6L1.9,81.6z"/>
	<path class="st0" d="M79.9,1.3v54.2c0,17.9,14.5,32.4,32.4,32.4V86c-16.9,0-30.6-13.7-30.6-30.6V1.3H79.9L79.9,1.3z"/>
	<polygon class="st0" points="9.3,78.4 7.7,78.4 7.7,72.2 5.5,72.2 5.5,70.9 11.5,70.9 11.5,72.2 9.3,72.2 9.3,78.4 	"/>
	<path class="st0" d="M19,75.8c0,2-1.2,2.8-3.1,2.8c-0.7,0-1.7-0.2-2.4-0.9c-0.4-0.5-0.6-1.1-0.6-1.8v-4.9h1.6v4.8
		c0,1,0.6,1.5,1.3,1.5c1.1,0,1.5-0.5,1.5-1.4v-4.9H19V75.8L19,75.8z"/>
	<polygon class="st0" points="25.4,70.9 27.1,70.9 24.5,78.4 23,78.4 20.5,70.9 22.2,70.9 23.8,76.6 23.8,76.6 25.4,70.9 	"/>
	<path class="st0" d="M30.8,70.9h3.8c2,0,2.3,1.5,2.3,2.1c0,0.8-0.4,1.5-1.2,1.8c0.6,0.3,0.9,0.5,0.9,1.9c0,1.1,0,1.4,0.3,1.5v0.2
		h-1.7c-0.1-0.4-0.2-0.7-0.2-1.5c0-1-0.1-1.4-1.2-1.4h-1.6v2.9h-1.5V70.9L30.8,70.9z"/>
	<path class="st0" d="M34.2,74.2c0.8,0,1.2-0.3,1.2-1c0-0.4-0.2-1-1.1-1h-1.9v2H34.2L34.2,74.2z"/>
	<path class="st0" d="M42.9,78.4h-1.5V75c0-0.4,0-1.1-0.9-1.1c-0.6,0-1.1,0.4-1.1,1.3v3.2h-1.5v-7.5h1.5v2.6h0
		c0.2-0.5,0.8-0.9,1.6-0.9c1.1,0,1.9,0.6,1.9,1.8V78.4L42.9,78.4z"/>
	<path class="st0" d="M49,76.8c-0.4,1.3-1.5,1.8-2.4,1.8c-1.6,0-2.8-0.7-2.8-3c0-0.7,0.2-2.8,2.6-2.8c1.1,0,2.6,0.5,2.6,3V76h-3.8
		c0,0.4,0.1,1.3,1.3,1.3c0.4,0,0.8-0.2,0.9-0.6H49L49,76.8z"/>
	<path class="st0" d="M47.5,75.1c-0.1-0.9-0.7-1.2-1.1-1.2c-0.7,0-1,0.4-1.1,1.2H47.5L47.5,75.1z"/>
	<polygon class="st0" points="51.4,72.9 51.4,78.4 49.9,78.4 49.9,72.9 51.4,72.9 	"/>
	<polygon class="st0" points="51.4,72.2 49.9,72.2 49.9,70.9 51.4,70.9 51.4,72.2 	"/>
	<path class="st0" d="M57.5,78.4H56V75c0-0.4,0-1.1-0.9-1.1c-0.6,0-1.1,0.4-1.1,1.3v3.2h-1.5v-5.5h1.4v0.8h0c0.2-0.3,0.6-1,1.7-1
		c1.1,0,1.9,0.6,1.9,1.8V78.4L57.5,78.4z"/>
	<polygon class="st0" points="60.1,78.4 58.6,78.4 58.6,70.9 60.1,70.9 60.1,78.4 	"/>
	<path class="st0" d="M66,77.3c0,0.7,0.1,0.8,0.3,0.9v0.2h-1.6c-0.1-0.3-0.1-0.3-0.1-0.7c-0.3,0.3-0.8,0.8-1.8,0.8
		c-0.8,0-1.7-0.5-1.7-1.6c0-1.1,0.7-1.6,1.6-1.8l1.3-0.2c0.2,0,0.5-0.1,0.5-0.4c0-0.6-0.6-0.6-1-0.6c-0.7,0-0.9,0.4-0.9,0.8h-1.4
		c0.2-1.7,1.3-1.9,2.5-1.9c0.8,0,2.2,0.2,2.2,1.6V77.3L66,77.3z"/>
	<path class="st0" d="M64.6,75.7c-0.1,0.1-0.4,0.2-1,0.3c-0.5,0.1-1,0.2-1,0.8c0,0.5,0.4,0.7,0.7,0.7c0.6,0,1.3-0.4,1.3-1.1V75.7
		L64.6,75.7z"/>
	<path class="st0" d="M72.2,78.4h-1.5V75c0-0.4,0-1.1-0.9-1.1c-0.6,0-1.1,0.4-1.1,1.3v3.2h-1.5v-5.5h1.4v0.8h0c0.2-0.3,0.6-1,1.7-1
		c1.1,0,1.9,0.6,1.9,1.8V78.4L72.2,78.4z"/>
	<path class="st0" d="M78.3,78.4h-1.4v-0.7h0c-0.4,0.6-1,0.8-1.6,0.8c-1.6,0-2.3-1.5-2.3-3c0-1.9,1.1-2.8,2.3-2.8
		c0.9,0,1.4,0.5,1.6,0.9h0v-2.6h1.5V78.4L78.3,78.4z"/>
	<path class="st0" d="M75.6,77.3c0.9,0,1.3-0.8,1.3-1.6c0-0.9-0.2-1.8-1.2-1.8c-0.9,0-1.2,0.8-1.2,1.7
		C74.4,76.3,74.7,77.3,75.6,77.3L75.6,77.3z"/>
	<path class="st0" d="M13.7,69c0.5,0,1-0.4,1-1c0-0.5-0.4-1-1-1c-0.5,0-1,0.4-1,1C12.7,68.6,13.2,69,13.7,69L13.7,69z"/>
	<path class="st0" d="M17.8,69c0.5,0,1-0.4,1-1c0-0.5-0.4-1-1-1c-0.5,0-1,0.4-1,1C16.8,68.6,17.3,69,17.8,69L17.8,69z"/>
	<path class="st0" d="M21,57.3c6,0.8,14.3,0.2,22.6-2.6c10.3-3.4,19.3-2.6,24.8-1.1l3.6,6.7c-4.3-2-15.2-4.5-28.4-0.2
		c-13.2,4.3-26.1,3.3-30.2,0l30.1-49.9l23.2,40.4c-5.5-1.2-13.7-1.5-23.1,1.5C37.2,54.2,30.8,55,25.5,55l3.3-5.5
		c4.5-0.3,9.6-1.1,14.7-2.8c4.9-1.6,9.6-2.3,13.6-2.4L43.4,20.2L21,57.3L21,57.3z"/>
	<path class="st0" d="M130,83.6h-20c-6.5,0-26.1-8.3-25.8-29.1c0.2-10.9,7.6-28,29-28h15.6c0.3,1.3,1,5.7,3.1,8.2v7H114
		c-8.2,0-13.9,3.5-14.3,12.4c-0.4,8.9,6.9,13.7,14.6,13.7v-5c-3.5-0.2-9.8-1.9-9.8-8.3c0-6.5,5.4-7.6,9.5-7.6H130V83.6L130,83.6z"/>
	<path class="st0" d="M164.4,62.1c9.8,0,17.8-8,17.8-17.8c0-9.8-8-17.8-17.8-17.8l-15.9-0.1c-1.7,0-3-1.4-3-3c0-1.7,1.3-3,3-3
		l14.8,0V5.7h-14.8c-9.8,0-17.8,8-17.8,17.8c0,9.8,8,18.2,17.8,18.2l15.9,0c1.5,0,2.7,1.1,2.7,2.6c0,1.5-1.2,2.7-2.7,2.7h-32.5v15.2
		L164.4,62.1L164.4,62.1z"/>
	<path class="st0" d="M138.3,66.1l-0.8,3.7c-0.1,0.7-0.4,1.8-2.4,1.8c-0.8,0-1.6-0.3-1.5-1.2h1.1c0,0.2,0,0.4,0.6,0.4
		c0.6,0,0.9-0.3,1-0.9l0.1-0.5l0,0c-0.2,0.3-0.6,0.6-1.2,0.6c-0.9,0-1.6-0.7-1.3-2c0.3-1.4,1.2-2,2.1-2c0.7,0,0.9,0.4,1,0.7h0
		l0.1-0.6H138.3L138.3,66.1z"/>
	<path class="st0" d="M142.1,68.8c-0.5,0.9-1.3,1.3-2,1.3c-1.1,0-1.8-0.5-1.5-2.2c0.1-0.5,0.6-2,2.3-2c0.8,0,1.8,0.4,1.4,2.2l0,0.2
		h-2.7c0,0.3-0.1,1,0.7,1c0.3,0,0.6-0.1,0.8-0.4H142.1L142.1,68.8z"/>
	<path class="st0" d="M144.2,66.6L144.2,66.6c0.3-0.3,0.6-0.7,1.3-0.7c0.9,0,1.5,0.7,1.2,2c-0.2,1.1-0.9,2.1-2.1,2.1
		c-0.7,0-0.9-0.4-1-0.6h0l-0.4,2h-1l1.2-5.5h1L144.2,66.6L144.2,66.6z"/>
	<path class="st0" d="M147.9,66.1h1l-0.1,0.7h0c0.3-0.4,0.6-0.8,1.2-0.8c0.1,0,0.1,0,0.2,0L150,67c-0.1,0-0.2,0-0.3,0
		c-0.8,0-1.1,0.5-1.2,0.9l-0.4,2.1h-1L147.9,66.1L147.9,66.1z"/>
	<path class="st0" d="M153.5,70h-1l0.1-0.6h0c-0.3,0.4-0.8,0.7-1.3,0.7c-0.8,0-1.2-0.4-1-1.5l0.5-2.6h1l-0.5,2.4
		c-0.1,0.6,0.2,0.7,0.5,0.7c0.3,0,0.8-0.2,1-0.9l0.5-2.3h1L153.5,70L153.5,70z"/>
	<path class="st0" d="M155.7,70h-1l0.7-3.2h-0.6l0.2-0.7h0.6l0.1-0.3c0.2-0.8,0.7-1.1,1.4-1.1c0.3,0,0.4,0,0.5,0l-0.2,0.8H157
		c-0.4,0-0.4,0.1-0.5,0.4l0,0.2h0.7l-0.2,0.7h-0.7L155.7,70L155.7,70z"/>
	<path class="st0" d="M159,66.1h0.6l-0.2,0.7h-0.6l-0.5,2.1c0,0.2-0.1,0.3,0.4,0.3c0.1,0,0.1,0,0.2,0l-0.2,0.8c-0.2,0-0.3,0-0.5,0
		h-0.1c-0.9,0-1-0.3-0.9-0.9l0.5-2.4h-0.5l0.2-0.7h0.5l0.2-1.1h1L159,66.1L159,66.1z"/>
	<path class="st0" d="M163.1,68.8c-0.5,0.9-1.3,1.3-2,1.3c-1.1,0-1.9-0.5-1.5-2.2c0.1-0.5,0.6-2,2.3-2c0.8,0,1.8,0.4,1.4,2.2l0,0.2
		h-2.7c0,0.3-0.1,1,0.7,1c0.3,0,0.6-0.1,0.8-0.4H163.1L163.1,68.8z"/>
	<path class="st0" d="M135.1,75.9c-0.1,0.3,0,0.9,0.9,0.9c0.5,0,1.1-0.1,1.3-0.7c0.1-0.4-0.3-0.5-0.8-0.7l-0.5-0.1
		c-0.8-0.2-1.6-0.4-1.4-1.6c0.1-0.6,0.7-1.6,2.4-1.6c1.6,0,1.8,1.1,1.7,1.7h-1.1c0-0.2,0.1-0.8-0.9-0.8c-0.4,0-1,0.2-1.1,0.6
		c-0.1,0.4,0.2,0.5,0.4,0.6l1.2,0.3c0.7,0.2,1.3,0.5,1.1,1.4c-0.3,1.6-2,1.7-2.5,1.7c-1.9,0-2-1.1-1.9-1.8H135.1L135.1,75.9z"/>
	<polygon class="st0" points="140.7,73.6 139.9,77.6 138.9,77.6 139.7,73.6 140.7,73.6 	"/>
	<polygon class="st0" points="140.8,73.1 139.8,73.1 140,72.2 141,72.2 140.8,73.1 	"/>
	<path class="st0" d="M144.6,76.1c-0.1,0.4-0.7,1.5-2.1,1.5c-1.5,0-1.6-1.1-1.4-2c0.3-1.3,1-2.2,2.4-2.2c0.6,0,1.6,0.3,1.4,1.5h-1.1
		c0-0.3-0.1-0.7-0.6-0.6c-0.7,0-1,0.7-1.1,1.1c-0.1,0.4-0.3,1.3,0.5,1.3c0.5,0,0.8-0.5,0.9-0.7H144.6L144.6,76.1z"/>
	<path class="st0" d="M148.6,77.6h-1l0.5-2.4c0.1-0.3,0.1-0.8-0.5-0.8c-0.5,0-0.9,0.3-1,0.9l-0.5,2.3h-1l1.1-5.3h1l-0.4,1.9h0
		c0.2-0.3,0.7-0.6,1.3-0.6c0.8,0,1.3,0.5,1.1,1.3L148.6,77.6L148.6,77.6z"/>
	<path class="st0" d="M153.2,76.4c-0.5,0.9-1.3,1.3-2,1.3c-1.1,0-1.9-0.5-1.5-2.2c0.1-0.5,0.6-2,2.3-2c0.8,0,1.8,0.4,1.4,2.2l0,0.2
		h-2.7c0,0.3-0.1,1,0.7,1c0.3,0,0.6-0.1,0.8-0.4H153.2L153.2,76.4z"/>
	<path class="st0" d="M154.5,73.6h1l-0.1,0.7h0c0.3-0.4,0.6-0.8,1.2-0.8c0.1,0,0.1,0,0.2,0l-0.2,1.1c-0.1,0-0.2,0-0.3,0
		c-0.8,0-1.1,0.5-1.2,0.9l-0.4,2.1h-1L154.5,73.6L154.5,73.6z"/>
	<path class="st0" d="M160.1,77.6h-1l0.5-2.4c0.1-0.3,0.2-0.8-0.5-0.8c-0.5,0-0.9,0.3-1,0.9l-0.5,2.3h-1l1.1-5.3h1l-0.4,1.9h0
		c0.2-0.3,0.7-0.6,1.3-0.6c0.8,0,1.3,0.5,1.1,1.3L160.1,77.6L160.1,77.6z"/>
	<path class="st0" d="M164.7,76.4c-0.5,0.9-1.3,1.3-2,1.3c-1.1,0-1.9-0.5-1.5-2.2c0.1-0.5,0.6-2,2.3-2c0.8,0,1.8,0.4,1.4,2.2l0,0.2
		h-2.7c0,0.3-0.1,1,0.7,1c0.3,0,0.6-0.1,0.8-0.4H164.7L164.7,76.4z"/>
	<polygon class="st0" points="167.1,73.6 166.3,77.6 165.2,77.6 166.1,73.6 167.1,73.6 	"/>
	<polygon class="st0" points="167.2,73.1 166.2,73.1 166.4,72.2 167.4,72.2 167.2,73.1 	"/>
	<path class="st0" d="M169.3,73.6h0.6l-0.2,0.7h-0.6l-0.5,2.1c0,0.2-0.1,0.3,0.4,0.3c0.1,0,0.1,0,0.2,0l-0.2,0.8c-0.2,0-0.3,0-0.5,0
		h-0.1c-0.9,0-1-0.3-0.9-0.9l0.5-2.4h-0.5l0.2-0.7h0.5l0.2-1.1h1L169.3,73.6L169.3,73.6z"/>
	<path class="st0" d="M151.7,65.2c0.3,0,0.6-0.3,0.6-0.6c0-0.3-0.3-0.6-0.6-0.6c-0.3,0-0.6,0.3-0.6,0.6
		C151.1,64.9,151.3,65.2,151.7,65.2L151.7,65.2z"/>
	<path class="st0" d="M154.1,65.2c0.3,0,0.6-0.3,0.6-0.6c0-0.3-0.3-0.6-0.6-0.6c-0.3,0-0.6,0.3-0.6,0.6
		C153.5,64.9,153.8,65.2,154.1,65.2L154.1,65.2z"/>
	<path class="st0" d="M135.8,69.1c0.7,0,1-0.6,1.1-1.1c0.1-0.6-0.1-1.2-0.6-1.2c-0.4,0-0.9,0.3-1.1,1.2
		C135.1,68.6,135.2,69.1,135.8,69.1L135.8,69.1z"/>
	<path class="st0" d="M141.3,67.6c0.1-0.6-0.3-0.8-0.6-0.8c-0.5,0-0.8,0.3-1,0.8H141.3L141.3,67.6z"/>
	<path class="st0" d="M144.6,69.2c0.7,0,1-0.7,1.1-1.2c0.1-0.6,0-1.2-0.6-1.2c-0.7,0-1,0.6-1.2,1.3
		C143.8,68.7,143.9,69.2,144.6,69.2L144.6,69.2z"/>
	<path class="st0" d="M162.3,67.6c0.1-0.6-0.3-0.8-0.6-0.8c-0.5,0-0.8,0.3-1,0.8H162.3L162.3,67.6z"/>
	<path class="st0" d="M152.4,75.2c0.1-0.6-0.3-0.8-0.6-0.8c-0.5,0-0.8,0.3-1,0.8H152.4L152.4,75.2z"/>
	<path class="st0" d="M164,75.2c0.1-0.6-0.3-0.8-0.6-0.8c-0.5,0-0.8,0.3-1,0.8H164L164,75.2z"/>
</g>
</svg>
